<?xml version="1.0" encoding="utf-8"?>
<!-- Generator: Adobe Illustrator 27.5.0, SVG Export Plug-In . SVG Version: 6.00 Build 0)  -->
<svg version="1.1" xmlns="http://www.w3.org/2000/svg" xmlns:xlink="http://www.w3.org/1999/xlink" x="0px" y="0px"
	 viewBox="0 0 1000 1000" style="enable-background:new 0 0 1000 1000;" xml:space="preserve">
<style type="text/css">
	.st0{fill:#FFFFFF;}
</style>
<g id="_x30_">
	<path id="face" class="st0" d="M25.2,302.5V26h281.4l81.2,81.2v279.4l-83.1-83.1L25.2,302.5z"/>
	<path id="cube" d="M25.4,17.7c-3.9,0-7.1,3.2-7.1,7.1v279.9c0,1.9,0.8,3.7,2.2,5l0.5,0.5l81.4,81.5c1.3,1.3,3.1,2.1,5,2.1l278.7,0
		c3.9,0,7.1-3.2,7.1-7.1l0.6-280.5c0-1.9-0.7-3.7-2.1-5L310.5,20c-0.2-0.1-0.3-0.3-0.5-0.5c-0.5-0.4-0.9-0.7-1.5-1
		c-0.2-0.1-0.3-0.2-0.5-0.2c-0.9-0.4-1.8-0.6-2.7-0.6L25.4,17.7z M32.5,32h265.7v265.7H32.5V32z M312.4,42l67.1,67.1l-0.1,36.5
		l-67-67V42z M312.4,98.8l66.9,66.9l-0.1,36.4l-66.9-66.9V98.8z M312.4,155.4l66.8,66.8l-0.1,36.4l-66.7-66.7L312.4,155.4z
		 M312.4,212l66.7,66.7l-0.1,36.4l-66.6-66.6V212z M312.4,268.6l66.6,66.6l-0.1,36.4l-66.5-66.5c0-0.1,0-0.2,0-0.3V268.6z"/>
	<path id="_x30__00000167364299949878766630000012446358219230469003_" d="M165.3,213.6c-9.2,0-17.6-2.1-25.1-6.3
		c-7.4-4.2-13.2-10-17.4-17.4c-4.2-7.5-6.3-15.8-6.3-25.1c0-9.2,2.1-17.6,6.3-25.1c4.2-7.5,10-13.3,17.4-17.5
		c7.5-4.2,15.8-6.3,25.1-6.3c9.2,0,17.5,2.1,24.9,6.3c7.4,4.2,13.2,10.1,17.4,17.5c4.3,7.5,6.5,15.8,6.5,25.1
		c0,9.2-2.1,17.6-6.3,25.1c-4.2,7.4-10.1,13.2-17.5,17.4C182.8,211.5,174.5,213.6,165.3,213.6L165.3,213.6z M165.3,201.3
		c6.8,0,12.9-1.6,18.2-4.7c5.4-3.2,9.6-7.5,12.6-13c3-5.6,4.6-11.9,4.6-18.8c0-7-1.5-13.3-4.6-18.8c-3-5.6-7.2-10-12.6-13.2
		c-5.4-3.2-11.5-4.7-18.2-4.7c-6.7,0-12.7,1.6-18.2,4.7c-5.4,3.2-9.6,7.5-12.8,13.2c-3,5.5-4.6,11.7-4.6,18.8
		c0,6.9,1.5,13.2,4.6,18.8c3.2,5.5,7.4,9.8,12.8,13C152.6,199.8,158.6,201.3,165.3,201.3z"/>
	<path id="line" d="M135.8,211.5c-1.1,1.4-2.6,2.1-4.7,2.1c-1.9,0-3.4-0.6-4.6-1.8c-1.1-1.2-1.6-2.6-1.6-4.2c0-1.9,0.6-3.4,1.8-4.7
		l67.2-82.1c1.6-2.1,3.6-3.2,5.8-3.2c1.9,0,3.3,0.6,4.4,1.8c1.2,1.2,1.8,2.6,1.8,4.2c0,1.8-0.6,3.4-1.9,5.1L135.8,211.5z"/>
</g>
<g id="x_00000137130277914523022240000007837809756908650681_">
	<path id="face_00000149369228215351215230000012519845416831624619_" class="st0" d="M319.2,302.5V26h281.4l81.2,81.2v279.4
		l-83.1-83.1L319.2,302.5z"/>
	<path id="cube_00000007402915769154734320000001702518452050564795_" d="M319.4,17.7c-3.9,0-7.1,3.2-7.1,7.1v279.9
		c0,1.9,0.8,3.7,2.2,5l0.5,0.5l81.4,81.5c1.3,1.3,3.1,2.1,5,2.1l278.7,0c3.9,0,7.1-3.2,7.1-7.1l0.6-280.5c0-1.9-0.7-3.7-2.1-5
		L604.5,20c-0.2-0.1-0.3-0.3-0.5-0.5c-0.5-0.4-0.9-0.7-1.5-1c-0.2-0.1-0.3-0.2-0.5-0.3c-0.9-0.4-1.8-0.6-2.7-0.6L319.4,17.7z
		 M326.5,32h265.7v265.7H326.5L326.5,32z M606.4,42l67.1,67.1l-0.1,36.5l-67-67L606.4,42z M606.4,98.8l66.9,66.9l-0.1,36.4
		l-66.9-66.9V98.8z M606.4,155.4l66.8,66.8l-0.1,36.4l-66.7-66.7L606.4,155.4z M606.4,212l66.7,66.7l-0.1,36.4l-66.6-66.6L606.4,212
		z M606.4,268.6l66.6,66.6l-0.1,36.4l-66.5-66.5c0-0.1,0-0.2,0-0.3L606.4,268.6z"/>
	<path id="x" d="M498.1,203.1c1.3,1.6,1.9,3.2,1.9,4.7c0,1.6-0.6,3-1.9,4.2c-1.2,1.1-2.5,1.6-4,1.6c-1.4,0-2.6-0.2-3.5-0.7
		c-0.9-0.5-1.8-1.3-2.6-2.5l-28.8-36.7l-29.8,37.7c-1.1,1.4-2.6,2.1-4.7,2.1c-1.9,0-3.4-0.6-4.6-1.8c-1.1-1.2-1.6-2.6-1.6-4.2
		c0-1.9,0.6-3.4,1.8-4.7l30.3-37.9l-28.8-36.5c-1.2-1.3-1.8-2.9-1.8-4.7c0-1.8,0.5-3.2,1.6-4.4c1.1-1.2,2.6-1.8,4.6-1.8
		c2,0,3.7,0.7,5.1,2.1l28.2,36.3l27.9-35.2c1.6-2.1,3.6-3.2,5.8-3.2c1.9,0,3.3,0.6,4.4,1.8c1.2,1.2,1.8,2.6,1.8,4.2
		c0,1.8-0.6,3.4-1.9,5.1l-29.1,36.1L498.1,203.1z"/>
</g>
<g id="n_00000169525842066149093570000001788367664972307873_">
	<path id="face_00000020373767703196505420000017187513730036335249_" class="st0" d="M25.2,596.7V320.2h281.4l81.2,81.2v279.4
		l-83.1-83.1L25.2,596.7z"/>
	<path id="cube_00000157283005240515646020000017342157553674383289_" d="M25.4,311.9c-3.9,0-7.1,3.2-7.1,7.1V599
		c0,1.9,0.8,3.7,2.2,5l0.5,0.5l81.4,81.5c1.3,1.3,3.1,2.1,5,2.1l278.7,0c3.9,0,7.1-3.2,7.1-7.1l0.6-280.5c0-1.9-0.7-3.7-2.1-5
		l-81.2-81.1c-0.2-0.1-0.3-0.3-0.5-0.5c-0.5-0.4-0.9-0.7-1.5-1c-0.2-0.1-0.3-0.2-0.5-0.3c-0.9-0.4-1.8-0.6-2.7-0.6L25.4,311.9z
		 M32.5,326.2h265.7v265.7H32.5V326.2z M312.4,336.2l67.1,67.1l-0.1,36.5l-67-67L312.4,336.2z M312.4,393l66.9,66.9l-0.1,36.4
		l-66.9-66.9V393z M312.4,449.6l66.8,66.8l-0.1,36.4l-66.7-66.7L312.4,449.6z M312.4,506.2l66.7,66.7l-0.1,36.4l-66.6-66.6
		L312.4,506.2z M312.4,562.8l66.6,66.6l-0.1,36.4l-66.5-66.5c0-0.1,0-0.2,0-0.3L312.4,562.8z"/>
	<path id="n" d="M166.3,410.5c8.3,0,15.7,1.8,22.3,5.3c6.7,3.5,11.9,8.7,15.6,15.4c3.7,6.7,5.6,14.7,5.6,24v45.6
		c0,1.9-0.6,3.4-1.9,4.7c-1.3,1.3-2.9,1.9-4.7,1.9c-2,0-3.6-0.6-4.9-1.9c-1.3-1.3-1.9-2.9-1.9-4.7v-45.6c0-10.4-2.9-18.3-8.8-23.7
		c-5.7-5.5-13.3-8.2-22.6-8.2c-5.7,0-10.9,1.1-15.6,3.3c-4.6,2.2-8.2,5.3-10.9,9.3c-2.7,3.9-4,8.2-4,13v51.9c0,2-0.6,3.6-1.9,4.9
		c-1.2,1.2-2.7,1.8-4.7,1.8c-2,0-3.6-0.6-4.9-1.8c-1.3-1.3-1.9-2.9-1.9-4.9v-82.4c0-2,0.6-3.6,1.9-4.9c1.3-1.3,2.9-1.9,4.9-1.9
		c2,0,3.6,0.6,4.7,1.9c1.3,1.3,1.9,2.9,1.9,4.9v6c3.9-4.3,8.5-7.7,14-10.2C153.9,411.8,159.8,410.5,166.3,410.5L166.3,410.5z"/>
</g>
<g id="e_00000047051211025408925460000002316291423849020089_">
	<path id="face_00000047027607617365756440000001463552283757487768_" class="st0" d="M319.2,596.7V320.2h281.4l81.2,81.2v279.4
		l-83.1-83.1L319.2,596.7z"/>
	<path id="cube_00000045609270411167218930000007438638172554614696_" d="M319.4,311.9c-3.9,0-7.1,3.2-7.1,7.1V599
		c0,1.9,0.8,3.7,2.2,5l0.5,0.5l81.4,81.5c1.3,1.3,3.1,2.1,5,2.1l278.7,0c3.9,0,7.1-3.2,7.1-7.1l0.6-280.5c0-1.9-0.7-3.7-2.1-5
		l-81.2-81.1c-0.2-0.1-0.3-0.3-0.5-0.5c-0.5-0.4-0.9-0.7-1.5-1c-0.2-0.1-0.3-0.2-0.5-0.2c-0.9-0.4-1.8-0.6-2.7-0.6L319.4,311.9z
		 M326.5,326.2h265.7v265.7H326.5V326.2z M606.4,336.2l67.1,67.1l-0.1,36.5l-67-67V336.2z M606.4,393l66.9,66.9l-0.1,36.4
		l-66.9-66.9V393z M606.4,449.6l66.8,66.8l-0.1,36.4l-66.7-66.7L606.4,449.6z M606.4,506.2l66.7,66.7l-0.1,36.4l-66.6-66.6V506.2z
		 M606.4,562.8l66.6,66.6l-0.1,36.4l-66.5-66.5c0-0.1,0-0.2,0-0.3V562.8z"/>
	<path id="e" d="M460.2,410.7c8.7,0,16.3,2,23,6.1c6.7,4,11.8,9.5,15.4,16.7c3.7,7.1,5.6,15.3,5.6,24.4c0,1.9-0.6,3.4-1.8,4.6
		c-1.2,1.1-2.7,1.6-4.6,1.6h-70.8c0.9,9.6,4.7,17.4,11.2,23.3c6.5,6,14.7,8.9,24.6,8.9c4.2,0,8.4-0.7,12.6-2.1
		c4.3-1.5,7.8-3.4,10.3-5.6c1.5-1.2,3.1-1.8,4.7-1.8c1.3,0,2.6,0.5,3.9,1.4c1.5,1.4,2.3,3,2.3,4.7c0,1.5-0.6,2.9-1.9,4
		c-3.9,3.3-8.8,6-14.7,8.2c-6,2.1-11.7,3.2-17.2,3.2c-9.4,0-17.7-2-25.1-6.1c-7.4-4.2-13.2-10-17.4-17.4c-4.1-7.5-6.1-15.9-6.1-25.3
		c0-9.5,1.9-17.9,5.8-25.3c4-7.5,9.4-13.3,16.3-17.4C443.4,412.8,451.3,410.7,460.2,410.7z M460.2,422.8c-8.9,0-16.3,2.7-22.1,8.2
		c-5.8,5.5-9.4,12.7-10.7,21.7h64.2c-0.9-9-4.2-16.3-9.8-21.7C476.2,425.5,469,422.8,460.2,422.8z"/>
</g>
<g id="s_00000012449107938063038510000004291325492966109347_">
	<path id="face_00000090268419154248196160000006380767977548218809_" class="st0" d="M613.2,596.7V320.2h281.4l81.2,81.2v279.4
		l-83.1-83.1L613.2,596.7z"/>
	<path id="cube_00000177463698026472004060000007620564639561480580_" d="M613.4,311.9c-3.9,0-7.1,3.2-7.1,7.1V599
		c0,1.9,0.8,3.7,2.2,5l0.5,0.5l81.4,81.5c1.3,1.3,3.1,2.1,5,2.1l278.7,0c3.9,0,7.1-3.2,7.1-7.1l0.6-280.5c0-1.9-0.7-3.7-2.1-5
		l-81.2-81.1c-0.2-0.1-0.3-0.3-0.5-0.5c-0.5-0.4-0.9-0.7-1.5-1c-0.2-0.1-0.3-0.2-0.5-0.2c-0.9-0.4-1.8-0.6-2.7-0.6L613.4,311.9z
		 M620.5,326.2h265.7v265.7H620.5V326.2z M900.4,336.2l67.1,67.1l-0.1,36.5l-67-67V336.2z M900.4,393l66.9,66.9l-0.1,36.4
		l-66.9-66.9V393z M900.4,449.6l66.8,66.8l-0.1,36.4l-66.7-66.7L900.4,449.6z M900.4,506.2l66.7,66.7l-0.1,36.4l-66.6-66.6V506.2z
		 M900.4,562.8l66.6,66.6l-0.1,36.4l-66.5-66.5c0-0.1,0-0.2,0-0.3V562.8z"/>
	<path id="s" d="M753.9,508.4c-7.2,0-14.2-1.2-20.9-3.7c-6.7-2.5-12-5.9-16.1-10.3c-1.2-1.4-1.8-2.7-1.8-4c0-2,0.9-3.7,2.8-5.3
		c1.4-1.1,2.9-1.6,4.4-1.6c2,0,3.7,0.8,5.1,2.5c2.8,3.3,6.5,5.8,11,7.5c4.7,1.8,9.8,2.6,15.4,2.6c8.2,0,14.3-1.4,18.4-4.2
		c4.1-2.8,6.2-6.5,6.3-11c0-4.2-2-7.7-6.1-10.5c-4.1-2.8-10.6-4.9-19.5-6.3c-11.5-1.9-20-5.1-25.8-9.6c-5.6-4.7-8.4-10.3-8.4-16.8
		c0-8.5,3.3-15.1,9.8-19.8c6.7-4.7,15-7,24.9-7c7.7,0,14.4,1.3,20.2,4c5.7,2.6,10.3,6.2,13.9,10.9c0.9,1.5,1.4,2.9,1.4,4
		c0,2-0.9,3.6-2.8,4.7c-0.8,0.6-1.9,0.9-3.3,0.9c-2.5,0-4.5-0.9-6.1-2.6c-5.7-6.5-13.6-9.8-23.5-9.8c-6.4,0-11.6,1.3-15.4,4
		c-3.9,2.6-5.8,5.8-5.8,9.8c0,4.2,1.8,7.6,5.4,10.2c3.6,2.5,10.1,4.4,19.3,6c12.5,2.1,21.5,5.6,26.8,10.3c5.4,4.7,8.1,10.5,8.1,17.5
		c0,5.4-1.6,10.2-4.9,14.4c-3.2,4.2-7.6,7.5-13.3,9.8C767.7,507.2,761.2,508.4,753.9,508.4L753.9,508.4z"/>
</g>
<g id="t_00000106138285022293351060000003063039565334193301_">
	<path id="face_00000017494948974144649700000017479735735824876946_" class="st0" d="M25.2,890.9V614.5h281.4l81.2,81.2V975
		l-83.1-83.1L25.2,890.9z"/>
	<path id="cube_00000109024267442587825600000003093838811710924435_" d="M25.4,606.2c-3.9,0-7.1,3.2-7.1,7.1v279.9
		c0,1.9,0.8,3.7,2.2,5l0.5,0.5l81.4,81.5c1.3,1.3,3.1,2.1,5,2.1l278.7,0c3.9,0,7.1-3.2,7.1-7.1l0.6-280.5c0-1.9-0.7-3.7-2.1-5
		l-81.2-81.1c-0.2-0.1-0.3-0.3-0.5-0.5c-0.5-0.4-0.9-0.7-1.5-1c-0.2-0.1-0.3-0.2-0.5-0.3c-0.9-0.4-1.8-0.6-2.7-0.6L25.4,606.2z
		 M32.5,620.4h265.7v265.7H32.5V620.4z M312.4,630.4l67.1,67.1l-0.1,36.5l-67-67L312.4,630.4z M312.4,687.2l66.9,66.9l-0.1,36.4
		l-66.9-66.9V687.2z M312.4,743.8l66.8,66.8l-0.1,36.4l-66.7-66.7L312.4,743.8z M312.4,800.4l66.7,66.7l-0.1,36.4l-66.6-66.6
		L312.4,800.4z M312.4,857.1l66.6,66.6l-0.1,36.4l-66.5-66.5c0-0.1,0-0.2,0-0.3L312.4,857.1z"/>
	<path id="t" d="M189.4,788.2c1.9,0,3.4,0.6,4.6,1.9s1.8,2.9,1.8,4.9c0,1.9-0.7,3.4-2.1,4.7c-1.4,1.3-3.2,1.9-5.3,1.9h-3.7
		c-6.2,0-11.7-1.5-16.7-4.4c-4.9-3-8.8-7.1-11.6-12.1c-2.7-5.1-4-10.9-4-17.4v-46.8H141c-1.9,0-3.4-0.5-4.6-1.6
		c-1.1-1.2-1.6-2.6-1.6-4.2c0-1.8,0.5-3.2,1.6-4.2c1.2-1.2,2.7-1.8,4.6-1.8h11.4v-27.2c0-2,0.6-3.6,1.8-4.9c1.3-1.3,2.9-1.9,4.9-1.9
		s3.6,0.6,4.9,1.9c1.3,1.3,1.9,2.9,1.9,4.9v27.2h19.8c1.9,0,3.3,0.6,4.4,1.8c1.2,1.1,1.8,2.5,1.8,4.2c0,1.6-0.6,3-1.8,4.2
		c-1.1,1.1-2.5,1.6-4.4,1.6h-19.8v46.8c0,6,1.8,10.9,5.3,14.7c3.5,3.7,8,5.6,13.5,5.6L189.4,788.2z"/>
</g>
<g id="o_00000092451982351964160520000017232801928291639195_">
	<path id="face_00000037667370529755393270000000681222723615987644_" class="st0" d="M319.3,890.9V614.5h281.4l81.2,81.2V975
		l-83.1-83.1L319.3,890.9z"/>
	<path id="cube_00000135687209125216449500000003283554719474900109_" d="M319.4,606.2c-3.9,0-7.1,3.2-7.1,7.1v279.9
		c0,1.9,0.8,3.7,2.2,5l0.5,0.5l81.4,81.5c1.3,1.3,3.1,2.1,5,2.1l278.7,0c3.9,0,7.1-3.2,7.1-7.1l0.6-280.5c0-1.9-0.7-3.7-2.1-5
		l-81.2-81.1c-0.2-0.1-0.3-0.3-0.5-0.5c-0.5-0.4-0.9-0.7-1.5-1c-0.2-0.1-0.3-0.2-0.5-0.3c-0.9-0.4-1.8-0.6-2.7-0.6L319.4,606.2z
		 M326.5,620.4h265.7v265.7H326.5V620.4z M606.4,630.4l67.1,67.1l-0.1,36.5l-67-67L606.4,630.4z M606.4,687.2l66.9,66.9l-0.1,36.4
		l-66.9-66.9V687.2z M606.4,743.8l66.8,66.8l-0.1,36.4l-66.7-66.7L606.4,743.8z M606.4,800.4l66.7,66.7l-0.1,36.4l-66.6-66.6
		L606.4,800.4z M606.4,857.1l66.6,66.6l-0.1,36.4l-66.5-66.5c0-0.1,0-0.2,0-0.3L606.4,857.1z"/>
	<path id="o" d="M459.4,802.6c-9.2,0-17.6-2.1-25.1-6.3c-7.4-4.2-13.2-10-17.4-17.4c-4.2-7.5-6.3-15.8-6.3-25.1s2.1-17.6,6.3-25.1
		c4.2-7.5,10-13.3,17.4-17.5c7.5-4.2,15.8-6.3,25.1-6.3s17.5,2.1,24.9,6.3c7.4,4.2,13.2,10.1,17.4,17.5c4.3,7.5,6.5,15.8,6.5,25.1
		s-2.1,17.6-6.3,25.1c-4.2,7.4-10.1,13.2-17.5,17.4C477,800.5,468.7,802.6,459.4,802.6L459.4,802.6z M459.4,790.3
		c6.8,0,12.9-1.6,18.2-4.7c5.4-3.2,9.6-7.5,12.6-13c3-5.6,4.6-11.9,4.6-18.8c0-7-1.5-13.3-4.6-18.8c-3-5.6-7.2-10-12.6-13.2
		c-5.4-3.2-11.5-4.7-18.2-4.7c-6.7,0-12.7,1.6-18.2,4.7c-5.4,3.2-9.6,7.5-12.8,13.2c-3,5.5-4.6,11.7-4.6,18.8
		c0,6.9,1.5,13.2,4.6,18.8c3.2,5.5,7.4,9.8,12.8,13C446.7,788.8,452.8,790.3,459.4,790.3z"/>
</g>
<g id="r_00000080900192331934885130000000975697019898656645_" xmlns:cc="http://creativecommons.org/ns#" xmlns:dc="http://purl.org/dc/elements/1.1/" xmlns:rdf="http://www.w3.org/1999/02/22-rdf-syntax-ns#" xmlns:sodipodi="http://sodipodi.sourceforge.net/DTD/sodipodi-0.dtd" xmlns:svg="http://www.w3.org/2000/svg" xmlns:inkscape="http://www.inkscape.org/namespaces/inkscape">
	<path id="face_00000026126484520622894810000009227034297256673975_" class="st0" d="M613.2,890.9V614.5h281.4l81.2,81.2V975
		l-83.1-83.1L613.2,890.9z"/>
	
		<path id="cube_00000162343710539913089560000013279638028685096075_" sodipodi:nodetypes="cccccccccccccccccccccccccccccccccccccccccccccccc" d="
		M613.4,606.2c-3.9,0-7.1,3.2-7.1,7.1v279.9c0,1.9,0.8,3.7,2.2,5l0.5,0.5l81.4,81.5c1.3,1.3,3.1,2.1,5,2.1l278.7,0
		c3.9,0,7.1-3.2,7.1-7.1l0.6-280.5c0-1.9-0.7-3.7-2.1-5l-81.2-81.1c-0.2-0.1-0.3-0.3-0.5-0.5c-0.5-0.4-0.9-0.7-1.5-1
		c-0.2-0.1-0.3-0.2-0.5-0.3c-0.9-0.4-1.8-0.6-2.7-0.6L613.4,606.2z M620.5,620.4h265.7v265.7H620.5V620.4z M900.4,630.4l67.1,67.1
		l-0.1,36.5l-67-67L900.4,630.4z M900.4,687.2l66.9,66.9l-0.1,36.4l-66.9-66.9V687.2z M900.4,743.8l66.8,66.8l-0.1,36.4l-66.7-66.7
		L900.4,743.8z M900.4,800.4l66.7,66.7l-0.1,36.4l-66.6-66.6L900.4,800.4z M900.4,857.1l66.6,66.6l-0.1,36.4l-66.5-66.5
		c0-0.1,0-0.2,0-0.3L900.4,857.1z"/>
	<path id="r" d="M767.1,704.8c4.9,0,8.8,0.6,11.6,1.9c2.9,1.3,4.4,3.1,4.4,5.4c0,0.7-0.1,1.2-0.2,1.6c-0.5,1.6-1.2,2.7-2.3,3.3
		c-0.9,0.6-2.3,0.9-4,0.9c-1.1,0-2.9-0.1-5.4-0.4c-0.9-0.1-2.3-0.2-4.2-0.2c-8.8,0-16,2.3-21.6,7c-5.5,4.7-8.2,10.8-8.2,18.2v52.4
		c0,2.1-0.6,3.7-1.8,4.9c-1.2,1.2-2.8,1.8-4.9,1.8c-2.1,0-3.7-0.6-4.9-1.8c-1.2-1.2-1.8-2.8-1.8-4.9v-82.6c0-2.1,0.6-3.7,1.8-4.9
		c1.2-1.2,2.8-1.8,4.9-1.8c2.1,0,3.7,0.6,4.9,1.8c1.2,1.2,1.8,2.8,1.8,4.9v7.7c3.4-4.9,7.7-8.7,13-11.4
		C755.3,706.1,761,704.8,767.1,704.8L767.1,704.8z"/>
</g>
</svg>
